<svg xmlns="http://www.w3.org/2000/svg" viewBox="0 0 16 16">
    <path fill="#e9e9e9"
          d="M10.232 4.191c-.415-.097-1.675-.498-2.305.105-.29.27-.433.635-.481 1.022l-.152 1.07h2.192v1.466H6.99l-.447 2.814a3.986 3.986 0 0 1-.548 1.55c-.78 1.224-2.181 1.502-3.312 1.496-.05 0-.837-.002-1.406-.124l.001-1.945s1.064.704 2.304-.121c.661-.48.71-2.472.895-3.67H2.768V6.389h2.128L5.11 5.06c.278-2.299 2.277-2.753 3.714-2.775.491 0 .95.042 1.41.115zm3.996 9.319h-1.866l-.911-1.467-1.25 1.466H8.37l2.228-2.452L8.92 8.612h1.866l.896 1.437 1.207-1.437h1.834l-2.197 2.412Z"/>
</svg>
