<svg xmlns="http://www.w3.org/2000/svg" viewBox="0 0 127 153">
    <path fill="#e0e0e0"
          d="M43.717 3.272c.75 46.829 1.815 94.965-.646 145.87-.08 1.665-1.635 3.028-2.613 3.315-3.022.755-6.05.356-7.893-.792-10.159-8.75-21.995-19.49-31.53-28.313-.59-.785-.5-1.116-.535-1.915-.027-5.993-.003-85.932-.01-90.833.032-.87.067-.896.837-1.497 3.148-2.473 7.698-6.114 31.662-26.553C35.762.358 36.318.486 39.877.96c0 0 3.783.238 3.84 2.311zM79.283 76.21c.339.143 33.893 28.552 44.746 39.97 2.277 2.395 2.574 4.82 1.034 6.65-4.02 4.16-15.772 15.611-22.7 21.045-1.347 1.058-4.079.522-4.54.542-8.291-3.215-22.125-21.697-46.21-41.602 17.6-17.238 18.26-17.724 27.67-26.605Z"/>
    <path fill="#e0e0e0"
          d="M43.713 57.199C64.85 37.405 71.604 32.377 96.666 9.756c1.846-1.742 3.387-2.395 5.522-1.819 4.32 1.997 13.743 11.347 22.77 20.168 1.257 1.298.995 3.038-.472 4.38-7.827 7.835-63.735 61.769-80.209 77.681.241-30.232-1.184-32.832-.564-52.967z"/>
</svg>
